<svg width="242" height="225" viewBox="0 0 242 225" fill="none" xmlns="http://www.w3.org/2000/svg">
<g clip-path="url(#clip0_204_4266)">
<path d="M158.812 11.8519C112.331 5.00003 90.0122 8.33336 59.7622 28.8889C19.5518 56.2963 3.68901 77.4074 0.553342 104.074C-2.95123 134.63 9.96035 163.519 30.9878 182.037C53.6753 202.037 84.2942 218.889 115.282 223.519C142.95 227.593 181.5 223.519 201.421 204.63C231.302 176.296 235.729 142.778 237.204 101.667C238.311 67.5926 233.331 22.963 158.812 11.8519Z" fill="#FCBA26"/>
<path d="M210.09 163.333L119.709 111.296C117.68 110 114.728 109.444 111.962 109.444C109.564 109.444 107.535 110 105.875 110.926L64.3733 135H58.6553V141.111C58.6553 143.148 59.9464 145 62.3443 146.296L154.017 199.074C156.046 200.37 158.997 200.926 161.763 200.926C164.161 200.926 166.19 200.37 167.85 199.444L212.303 173.704C214.148 172.593 215.07 171.111 215.07 169.444V163.333H210.09Z" fill="#2C1D1B"/>
<path d="M161.763 194.815C158.997 194.815 156.23 194.074 154.017 192.963L62.3443 140.185C59.9464 138.889 58.6553 136.852 58.6553 135C58.6553 133.333 59.5775 131.667 61.422 130.741L105.875 105C107.535 104.074 109.564 103.518 111.962 103.518C114.728 103.518 117.495 104.259 119.709 105.37L211.381 158.148C213.779 159.444 215.07 161.481 215.07 163.333C215.07 165 214.148 166.667 212.303 167.593L167.85 193.519C166.19 194.444 163.977 194.815 161.763 194.815Z" fill="#442E2C"/>
<path d="M167.113 192.222L211.565 166.481C214.701 164.63 214.332 161.481 210.643 159.259L118.971 106.481C115.282 104.444 109.748 104.074 106.613 105.926L62.1598 131.852C59.0242 133.704 59.3931 136.852 63.0821 139.074L154.754 191.852C158.443 193.889 163.977 194.074 167.113 192.222Z" fill="#593D3C"/>
<path d="M209.905 159.815L156.045 190.926L64.5576 138.148L118.417 106.852L209.905 159.815Z" fill="white"/>
<path d="M209.905 159.815L156.046 190.926L125.98 173.519L179.84 142.407L209.905 159.815Z" fill="#FF5948"/>
<path d="M86.8763 120C85.7695 120 85.0317 120.556 85.0317 121.111C85.0317 121.667 85.7695 122.222 86.8763 122.222C87.983 122.222 88.7208 121.667 88.7208 121.111C88.7208 120.556 87.983 120 86.8763 120Z" fill="white"/>
<path d="M92.2252 117.037C91.4874 117.037 90.9341 117.407 90.9341 117.778C90.9341 118.148 91.4874 118.518 92.2252 118.518C92.963 118.518 93.5164 118.148 93.5164 117.778C93.5164 117.407 92.963 117.037 92.2252 117.037Z" fill="white"/>
<path d="M183.713 180.926C182.976 180.926 182.422 180.741 181.869 180.37C181.131 180 180.762 179.444 180.762 178.704C180.762 178.148 181.131 177.593 181.684 177.407L189.8 172.593C190.169 172.407 190.723 172.222 191.276 172.222C192.014 172.222 192.567 172.407 193.12 172.778C193.858 173.148 194.227 173.704 194.227 174.444C194.227 175 193.858 175.556 193.305 175.741L185.189 180.556C185.005 180.926 184.451 180.926 183.713 180.926Z" fill="white"/>
<path d="M56.8108 29.6296C56.8108 29.6296 65.48 43.3334 70.6446 44.2593C73.9648 50.7408 89.2742 36.1111 88.7209 34.0741C88.1675 32.0371 74.3337 19.2593 74.3337 19.2593L56.8108 29.6296Z" fill="#FFA192"/>
<path d="M129.3 140.37C127.456 124.074 116.204 49.0741 114.728 38.5185C112.884 25.7407 103.477 23.5185 94.4388 14.4444C86.323 6.48149 85.0318 5 80.2361 6.48149C78.7605 3.33334 77.2849 2.40741 73.7803 3.33334C73.0425 1.85186 71.5669 0.92593 70.0913 0.370375C68.2468 -0.185181 65.6644 0.18519 64.0044 1.66667C60.6843 -0.740736 58.6553 -0.925921 55.8885 1.85186C53.8596 3.88889 50.7239 7.03704 47.4038 10.3704C43.1614 14.6296 41.8702 20.7407 40.5791 24.6296C38.7346 30.3704 35.4144 35 39.1035 35.7407C38.1812 37.963 39.4724 39.8148 40.5791 39.2593C40.5791 42.037 42.9769 42.4074 44.2681 42.037C45.0059 43.5185 47.0349 43.5185 48.8794 42.7778C48.1416 43.5185 46.8504 49.0741 51.6462 49.0741C56.8108 49.0741 62.3443 51.8519 67.1401 53.3333C69.5379 54.0741 80.7894 54.6296 89.0897 52.2222C92.2254 50.7407 98.8657 55.3704 99.6035 64.0741C100.157 71.2963 100.526 131.852 100.526 151.667C103.108 152.407 106.059 152.778 109.195 152.778C120.446 152.778 129.485 147.593 129.485 141.296C129.485 141.296 129.3 140.741 129.3 140.37ZM76.1782 35.5556C75.0715 36.2963 74.3337 37.5926 73.2269 38.3333C68.6157 41.4815 64.7422 40.3704 59.9465 40.7407C59.5776 40.7407 59.2087 40.7407 58.8398 40.7407C62.8977 37.4074 66.5867 32.5926 68.8001 28.7037C71.198 28.7037 73.5958 28.5185 75.8093 27.7778C76.5471 30 78.2071 32.037 80.0516 33.5185C78.7605 33.7037 77.6538 34.4444 76.1782 35.5556Z" fill="#FFC8B5"/>
<path d="M78.7606 141.852L44.8215 122.222V66.8519L78.7606 86.4815V141.852Z" fill="#ED2929"/>
<path d="M44.8215 66.8519L21.7651 80.1852V135.556L30.9877 126.111L44.8215 122.222V66.8519Z" fill="#ED2929"/>
<path d="M55.7042 155.556L21.7651 135.556V80.1852L55.7042 100.185V155.556Z" fill="#F74037"/>
<path d="M66.0334 81.2963L32.0944 61.4815L21.7651 80.1852L55.7042 100.185L66.0334 81.2963Z" fill="#FF5948"/>
<path d="M78.7605 86.8519L55.7041 100.185V155.556L64.9267 146.111L78.7605 142.222V86.8519Z" fill="#ED2929"/>
<path d="M66.0335 81.2963L32.0945 61.4815L44.8216 66.8519L78.7606 86.4815L66.0335 81.2963Z" fill="#F74037"/>
<path d="M63.0822 78.5186C64.1889 77.7778 60.3154 76.1111 60.1309 71.8519C59.762 67.2222 60.6843 59.8148 61.2376 53.7037C61.791 46.2963 61.2376 40.7408 55.3352 39.4445C48.1416 37.7778 43.8992 41.4815 41.8703 47.2223C39.288 54.4445 39.1035 62.2223 41.8703 66.1111C42.6081 67.0371 44.637 69.0741 45.9282 68.7037C47.5883 68.1482 43.5303 66.4815 42.977 62.5926C41.8703 56.6667 43.3459 49.6297 45.5593 45.5556C47.2194 42.5926 51.2773 39.2593 55.3352 42.4074C57.1797 43.7037 57.7331 50.1852 57.7331 56.2963C57.9175 62.4074 56.6264 71.4815 58.4709 75.5556C59.0242 76.6667 62.1599 79.2593 63.0822 78.5186Z" fill="#2C1D1B"/>
<path d="M34.1235 68.8889C34.1235 68.8889 37.4436 62.037 38.5503 55.3704C39.8415 47.4074 44.6372 36.4815 53.1219 38.1482C61.6067 39.8148 60.6844 52.963 59.3933 62.037C58.1021 71.1111 55.1509 76.2963 53.4909 79.8148C51.8308 83.3333 50.3552 85.5556 49.064 84.6296C47.7729 83.8889 49.4329 81.4815 50.9085 77.4074C52.753 72.2222 56.2576 67.4074 56.9954 59.4444C57.7332 50 57.5488 44.2593 54.2287 41.4815C50.1707 38.1482 46.8506 41.6667 44.4527 44.8148C42.2393 47.7778 41.5015 52.5926 40.2104 59.2593C39.2881 64.6296 38.3658 66.4815 36.8902 70C35.2302 73.8889 34.3079 75.9259 32.8323 75.1852C31.7256 74.4445 32.8323 72.2222 34.1235 68.8889Z" fill="#442E2C"/>
<path d="M88.9052 52.5926C93.5165 59.8148 87.983 134.259 88.7208 141.667C88.7208 146.296 93.5165 150.185 100.341 152.037C100.157 132.222 99.9723 71.6666 99.4189 64.4444C98.6811 55.7407 92.0409 51.1111 88.9052 52.5926Z" fill="#FFA192"/>
<path d="M44.8216 38.7037L43.3459 41.6667C43.3459 41.6667 44.2682 43.5185 45.7438 43.8889C47.4039 44.2592 48.695 42.9629 48.695 42.9629C48.695 42.9629 48.695 43.3333 51.2773 43.3333C53.8597 43.3333 58.8398 40.5555 58.8398 40.5555C58.8398 40.5555 56.2575 35.5555 56.0731 35.5555C55.7042 35.7407 44.8216 38.7037 44.8216 38.7037Z" fill="#FFC8B5"/>
<path d="M50.9084 43.8889C48.3261 43.7037 48.695 42.2222 48.695 42.2222C48.695 42.2222 52.0151 43.3333 54.7819 42.2222C57.5486 41.1111 61.4221 38.1481 61.4221 38.1481C61.4221 38.1481 55.7041 44.2592 50.9084 43.8889Z" fill="#FFA192"/>
<path d="M59.3931 23.5186C56.6263 27.963 52.1995 35.1852 50.7239 37.5926C52.015 36.6667 58.1019 31.4815 59.3931 23.5186Z" fill="#FFA192"/>
<path d="M75.0716 9.81482C71.0137 12.037 62.3445 18.8889 61.9756 19.6296C66.4024 17.7778 74.1494 11.6667 75.0716 9.81482Z" fill="#FFA192"/>
<path d="M68.6157 5.37036C61.9755 9.81481 55.8886 14.0741 53.6752 18.8889C50.724 25.5555 47.9572 31.2963 44.8215 38.3333C47.5883 35.3704 51.6462 27.2222 54.413 21.6667C57.9176 14.6296 66.9557 8.33332 68.6157 5.37036Z" fill="#FFA192"/>
<path d="M57.1798 8.33334C58.471 7.22223 59.7621 6.11112 61.0533 4.81482C59.3932 5.18519 54.0441 8.70371 52.5685 10C51.6463 10.9259 50.9085 11.8519 50.1707 12.5926C52.5685 11.4815 54.9664 10 57.1798 8.33334Z" fill="#FFA192"/>
<path d="M44.2682 26.4815C45.006 23.5185 45.9282 20.5555 46.666 17.7778C43.5303 23.1481 41.8703 28.7037 38.7346 36.1111C40.5791 34.8148 42.4236 30.7407 44.2682 26.4815Z" fill="#FFA192"/>
<path d="M56.6263 27.7778C56.6263 27.7778 50.7239 35.5555 48.6949 37.963C46.666 40.3704 47.0349 40 46.8504 41.4815C46.666 42.7778 47.4038 43.5185 47.4038 43.5185L48.6949 43.1481V42.4074C48.6949 42.4074 48.326 41.1111 49.2483 39.8148C49.9861 38.7037 53.1217 35.7407 54.4129 34.0741C55.5196 32.4074 56.6263 27.7778 56.6263 27.7778Z" fill="#FFA192"/>
<path d="M50.5396 133.889C49.4329 131.667 47.7728 128.704 46.4816 126.852C47.7728 125.556 46.4816 123.333 45.006 121.852C45.006 121.481 44.8216 120.926 44.6371 120.185C46.1127 119.815 47.035 118.333 46.2972 115.37C45.5594 104.259 29.3277 95.1852 29.881 107.222C29.881 109.074 30.8033 110.741 31.91 112.407C31.5411 112.778 31.5411 113.704 31.7255 114.444C30.8033 114.259 30.2499 114.444 30.0655 115.185C28.5899 114.815 27.2987 114.63 25.8231 114.444C25.6387 114.444 25.4542 114.63 25.6387 115C28.221 120 31.1722 126.296 34.4923 130.37C34.6768 130.556 34.8612 130.37 34.6768 130.185C33.3856 127.593 31.7255 125.185 30.2499 122.593C28.9588 120.185 27.6676 117.778 26.3765 115.37C27.6676 115.556 28.7743 115.741 30.0655 115.556C30.0655 115.926 30.2499 116.481 30.6188 117.222C30.8033 117.407 30.9877 117.778 30.9877 117.963C30.0655 118.148 29.881 119.444 30.4344 121.111C31.7255 124.444 35.7835 127.593 37.8124 129.074C40.2103 130.926 47.4039 133.889 45.3749 127.222C45.7438 127.222 46.1127 127.222 46.4816 126.852C47.4039 128.889 49.064 131.667 50.1707 133.889C50.3551 134.444 50.9085 134.444 50.5396 133.889ZM30.9877 105C32.2789 101.481 35.9679 102.037 39.1036 104.444C42.2393 106.667 44.4527 110.185 45.3749 114.259C46.8505 121.852 40.9481 118.889 37.8124 116.667C34.8612 114.444 29.1432 110 30.9877 105ZM32.4634 112.963C34.8612 115.741 38.1813 117.778 40.0259 118.889C41.317 119.63 42.7926 120.185 44.0838 120C45.5594 125.926 30.9877 116.481 32.4634 112.963ZM42.7926 130.185C42.2393 130.185 41.317 129.815 40.7637 129.63C38.1813 128.519 34.6768 125.741 33.939 125.185C33.2012 124.444 29.1432 120.185 31.3566 118.889C32.6478 120.926 33.939 121.111 36.3368 122.407C37.2591 122.963 38.1813 124.815 38.9191 125.185C40.5792 126.296 40.3948 125.185 41.8704 125.556C42.2393 125.556 44.2682 126.852 44.6371 127.037C45.1905 129.815 44.6371 130.185 42.7926 130.185ZM43.5304 125.556C43.1615 125.37 42.2393 124.63 41.8704 124.63C40.3948 124.074 39.288 125 37.9969 123.148C37.2591 122.222 36.7057 121.667 35.7835 121.296C34.6768 120.741 33.5701 120 32.2789 118.889C30.8033 117.222 29.6966 114.63 31.91 115.37C32.0944 115.556 32.0945 115.926 32.2789 116.111C33.7545 118.333 36.3368 119.815 37.9969 120.926C39.1036 121.481 43.346 123.704 44.8216 122.778C47.035 125.185 45.006 126.481 43.5304 125.556Z" fill="white"/>
<path d="M35.7835 104.815C35.2301 104.074 34.4923 104.259 34.3079 104.815C34.3079 105.185 34.4923 105.556 34.6768 105.556C34.8612 105.556 35.0457 105.37 35.2301 105.185C35.4146 105.185 35.599 105.185 35.7835 105C35.9679 105 35.9679 105 35.7835 104.815Z" fill="white"/>
<path d="M38.3657 106.667C38.5502 107.407 38.9191 108.333 39.288 108.889C39.4724 109.074 39.6569 109.074 39.6569 108.889C39.8413 107.963 38.9191 106.481 38.3657 106.667Z" fill="white"/>
<path d="M37.4436 110.185C37.0747 109.63 36.5214 109.259 36.3369 108.519C36.1525 108.148 35.968 108.148 35.968 108.333C35.968 109.444 36.7058 111.111 37.6281 111.111C37.8125 111.111 37.6281 110.37 37.4436 110.185Z" fill="white"/>
<path d="M42.6081 111.667C42.4237 111.481 42.4237 111.481 42.6081 111.667C42.4237 111.667 42.4237 111.852 42.2392 112.037C42.0548 112.222 41.8703 112.222 41.8703 112.407C41.6859 112.593 42.0548 113.148 42.2392 113.333C42.7926 113.333 43.1615 112.222 42.6081 111.667Z" fill="white"/>
<path d="M33.9389 109.63C33.57 109.259 33.3856 108.889 33.0167 108.519C32.6478 108.148 32.4633 107.593 32.0944 107.222C31.91 107.037 31.7255 107.037 31.7255 107.222C31.5411 108.519 33.0167 110.37 33.7545 110.37C34.1234 110.185 34.1234 109.815 33.9389 109.63Z" fill="white"/>
<path d="M40.3949 114.074C40.026 113.889 39.8415 114.074 39.6571 113.889C39.2882 113.889 39.1037 113.704 38.9193 113.889C38.7348 113.889 38.7348 114.63 39.1037 115C39.6571 115.556 40.5793 115.37 40.7638 114.63C40.7638 114.444 40.5793 114.074 40.3949 114.074Z" fill="white"/>
<path d="M50.3552 133.704C46.8506 133.148 40.7637 132.407 36.7058 132.222V132.407C40.7637 133.704 46.4817 134.259 50.3552 134.444C50.7241 134.259 50.5397 133.704 50.3552 133.704Z" fill="white"/>
<path d="M26.9297 90.9259C27.8519 90.9259 28.4053 90.9259 29.3276 90.9259C30.8032 91.1111 31.9099 91.8518 32.2788 93.3333C32.4632 94.0741 32.2788 94.8148 31.7254 94.8148C32.4632 95.1852 33.0166 95.9259 33.201 97.037C33.3855 98.7037 32.6477 99.0741 31.3565 99.0741C30.6187 99.0741 30.0654 98.8889 29.3276 99.0741C28.4053 95.7407 27.8519 94.2592 26.9297 90.9259ZM30.0654 94.2592C30.8032 94.2592 30.9876 94.0741 30.8032 93.3333C30.6187 92.7778 30.2498 92.4074 29.512 92.4074C29.1431 92.4074 29.1431 92.4074 28.7742 92.4074C28.9587 93.1481 29.1431 93.5185 29.3276 94.2592C29.6965 94.2592 29.6965 94.2592 30.0654 94.2592ZM30.9876 97.7778C31.7254 97.7778 31.9099 97.5926 31.9099 96.8518C31.7254 96.1111 31.3565 95.7407 30.6187 95.7407C30.2498 95.7407 30.0654 95.7407 29.8809 95.7407C30.0654 96.6666 30.2498 97.037 30.4343 97.7778C30.4343 97.5926 30.6187 97.5926 30.9876 97.7778Z" fill="white"/>
<path d="M33.3855 91.8518C35.23 92.4074 36.1523 92.7777 37.9968 93.8888C37.9968 94.4444 37.9968 94.8148 37.9968 95.3703C36.8901 94.8148 36.3367 94.4444 35.23 94.074C35.23 94.6296 35.23 95 35.4145 95.7407C36.3367 96.1111 36.7056 96.2963 37.6279 96.8518C37.6279 97.4074 37.6279 97.7777 37.6279 98.3333C36.7056 97.9629 36.3367 97.5925 35.4145 97.4074C35.4145 98.1481 35.5989 98.5185 35.5989 99.2592C36.5212 99.6296 37.0745 99.8148 38.1812 100.556C38.1812 101.111 38.1812 101.481 38.1812 102.037C36.7056 101.296 35.9678 100.926 34.4922 100.37C34.1233 96.6666 33.9389 95 33.3855 91.8518Z" fill="white"/>
<path d="M38.9189 100.926C39.2878 100.741 39.4723 100.556 39.6567 100.185C40.0257 100.926 40.579 101.667 41.1324 102.037C41.6857 102.407 42.0546 102.407 42.0546 102.037C42.0546 101.667 41.6857 101.111 41.3168 100.556C40.9479 100.185 40.7635 100 40.579 99.6296C40.0257 98.8889 39.2878 97.7778 39.2878 96.6667C39.2878 95.3704 40.3946 95 41.8702 96.2963C42.7924 96.8519 43.5302 97.963 44.0836 99.0741C43.7147 99.2593 43.5302 99.2593 43.1613 99.4444C42.7924 98.7037 42.4235 98.1482 41.8702 97.7778C41.3168 97.4074 40.9479 97.4074 40.9479 97.7778C40.9479 98.1482 41.3168 98.7037 41.8702 99.4444C42.2391 99.8148 42.4235 100 42.608 100.556C43.3458 101.481 43.7147 102.593 43.5302 103.519C43.3458 104.63 42.4235 104.815 40.9479 103.889C40.3946 102.963 39.6568 102.037 38.9189 100.926Z" fill="white"/>
<path d="M46.4815 101.852C45.7437 101.111 45.3748 100.741 44.637 100C44.8214 99.4444 44.8214 99.2592 44.8214 98.7037C47.0348 100.741 48.1415 101.852 50.1705 104.444C49.986 104.815 49.986 105 49.8016 105.556C49.0638 104.63 48.6949 104.259 47.9571 103.518C47.2193 105.37 47.0348 106.296 46.297 108.333C45.7437 107.778 45.5592 107.593 45.0059 107.037C45.7437 104.815 45.9281 103.704 46.4815 101.852Z" fill="white"/>
<path d="M27.852 125.556C29.1431 127.222 29.8809 127.963 31.3565 129.444C31.1721 130 31.1721 130.185 30.9876 130.556C30.0654 129.63 29.512 129.074 28.5898 128.148C28.4053 128.704 28.2209 128.889 28.0364 129.444C28.9587 130.37 29.3276 130.926 30.0654 131.667C29.8809 132.222 29.8809 132.407 29.6965 132.778C28.7742 131.852 28.4053 131.481 27.4831 130.37C27.1142 131.296 26.9297 131.667 26.5608 132.593C26.0075 131.852 25.6386 131.481 25.0852 130.741C26.3764 128.704 26.7453 127.593 27.852 125.556Z" fill="white"/>
<path d="M31.1721 133.148C31.7254 131.111 33.0166 130.926 34.4922 132.037C35.9678 133.333 37.0745 135.37 36.8901 137.778C36.8901 140.185 35.4144 140.741 33.5699 139.259C31.541 137.593 30.6187 135.185 31.1721 133.148ZM35.4144 136.667C35.5989 135.185 35.0455 134.074 34.3077 133.333C33.5699 132.778 32.8321 132.963 32.6477 134.444C32.4632 135.741 32.8321 137.222 33.7544 137.963C34.6766 138.519 35.4144 138.148 35.4144 136.667Z" fill="white"/>
<path d="M37.8123 138.148C37.8123 135.741 38.919 135 40.3946 135.741C41.8702 136.481 43.1613 138.148 43.5302 140.741C43.8991 143.333 42.7924 144.63 40.9479 143.704C39.1034 142.963 37.8123 140.741 37.8123 138.148ZM42.2391 140.37C42.0546 138.704 41.5013 137.593 40.579 137.222C39.8412 136.852 39.2879 137.407 39.2879 139.074C39.2879 140.556 40.0257 141.852 40.9479 142.407C41.8702 142.778 42.4235 141.852 42.2391 140.37Z" fill="white"/>
<path d="M44.2681 137.037C44.8214 137.222 45.1903 137.222 45.9281 137.222C47.5882 137.407 49.0638 138.519 49.8016 141.296C50.7239 144.074 49.8016 145.556 47.7726 145.37C47.0348 145.185 46.4815 145.185 45.7437 145C45.0059 142.037 44.8214 140.37 44.2681 137.037ZM47.2193 144.074C48.326 144.259 48.8793 143.519 48.326 141.481C47.7726 139.444 47.0348 138.889 45.9281 138.889C45.7437 138.889 45.7437 138.889 45.7437 138.889C46.1126 140.926 46.4815 142.037 46.8504 144.074C47.0348 144.074 47.0348 144.074 47.2193 144.074Z" fill="white"/>
<path d="M138.154 177.593C136.125 176.296 135.94 175 137.416 174.259C138.891 173.333 141.105 173.519 143.318 174.63C145.347 175.926 145.716 177.222 144.241 178.148C142.581 178.889 140.183 178.889 138.154 177.593ZM141.843 175.37C140.552 174.63 139.26 174.444 138.523 174.815C137.785 175.185 137.969 175.926 139.26 176.667C140.552 177.407 141.843 177.593 142.581 177.222C143.503 176.852 143.134 176.111 141.843 175.37Z" fill="black"/>
<path d="M141.105 172.222L143.134 171.111C144.241 170.37 145.716 170.185 147.376 171.111C148.299 171.667 148.483 172.222 148.299 172.778L152.172 173.519L150.696 174.259L147.376 173.519L146.639 173.889L149.036 175.185L147.561 175.926L141.105 172.222ZM145.901 172.778C146.639 172.407 146.639 172.037 145.901 171.667C145.347 171.296 144.61 171.296 144.056 171.852L143.318 172.222L145.163 173.333L145.901 172.778Z" fill="black"/>
<path d="M146.27 169.074L147.93 168.148C149.59 167.222 151.803 167.037 154.016 168.333C156.23 169.63 156.23 170.926 154.57 171.852L152.91 172.778L146.27 169.074ZM153.094 171.296C154.016 170.741 154.201 170 152.541 169.259C151.065 168.333 149.959 168.519 148.852 169.074L148.667 169.259L152.725 171.667L153.094 171.296Z" fill="black"/>
<path d="M151.803 165.926L155.308 163.889L156.599 164.63L154.386 165.926L155.677 166.667L157.521 165.556L158.812 166.296L156.968 167.407L158.443 168.333L160.841 167.037L162.132 167.778L158.628 169.815L151.803 165.926Z" fill="black"/>
<path d="M156.415 163.333L158.444 162.222C159.55 161.482 161.026 161.296 162.686 162.222C163.608 162.778 163.793 163.333 163.608 163.889L167.482 164.63L166.006 165.185L162.686 164.444L161.948 164.815L164.346 166.111L163.055 166.852L156.415 163.333ZM161.395 163.889C162.133 163.519 162.133 163.148 161.395 162.778C160.841 162.407 160.104 162.407 159.55 162.963L158.812 163.333L160.657 164.444L161.395 163.889Z" fill="black"/>
<path d="M163.423 159.259L166.928 157.222L168.219 157.963L166.006 159.259L167.481 160.185L169.51 159.074L170.801 159.815L168.772 160.926L171.355 162.407L169.879 162.963L163.423 159.259Z" fill="black"/>
<path d="M170.802 158.704C168.773 157.407 168.588 156.111 170.064 155.37C171.539 154.445 173.753 154.63 175.966 155.741C177.995 157.037 178.364 158.333 176.889 159.259C175.228 160 173.015 159.815 170.802 158.704ZM174.675 156.482C173.384 155.741 172.093 155.556 171.355 155.926C170.617 156.296 170.802 157.037 172.093 157.778C173.384 158.519 174.675 158.704 175.413 158.333C176.335 157.963 175.966 157.222 174.675 156.482Z" fill="black"/>
<path d="M176.704 155.185C174.675 153.889 174.491 152.593 175.966 151.852C177.442 150.926 179.655 151.111 181.869 152.222C183.898 153.519 184.266 154.815 182.791 155.741C181.131 156.667 178.733 156.482 176.704 155.185ZM180.393 152.963C179.102 152.222 177.811 152.037 177.073 152.407C176.335 152.778 176.52 153.519 177.811 154.259C179.102 155 180.393 155.185 181.131 154.815C182.053 154.63 181.869 153.889 180.393 152.963Z" fill="black"/>
<path d="M179.655 149.815L181.315 148.889C182.975 147.963 185.189 147.778 187.402 149.074C189.616 150.37 189.616 151.667 187.956 152.593L186.296 153.519L179.655 149.815ZM186.48 152.037C187.402 151.482 187.587 150.741 185.927 150C184.451 149.074 183.344 149.259 182.238 149.815L182.053 150L186.111 152.407L186.48 152.037Z" fill="black"/>
<path d="M150.328 183.704C146.823 181.667 146.454 179.444 149.036 177.963C151.619 176.482 155.308 176.667 158.812 178.704C162.317 180.741 162.686 182.963 160.288 184.444C157.706 186.111 153.832 185.741 150.328 183.704ZM156.783 180C154.57 178.704 152.541 178.519 151.25 179.259C149.959 180 150.512 181.296 152.541 182.407C154.754 183.704 156.968 184.074 158.259 183.333C159.55 182.593 158.997 181.296 156.783 180Z" fill="white"/>
<path d="M155.308 174.63L157.521 173.333L165.452 175L168.773 175.926C167.481 175.37 165.821 174.445 164.53 173.704L160.657 171.482L162.686 170.37L173.568 176.667L171.355 177.963L163.423 176.296L160.103 175.37C161.395 175.926 163.055 176.667 164.346 177.593L168.219 179.815L166.19 180.926L155.308 174.63Z" fill="white"/>
<path d="M164.899 169.074L167.112 167.778L175.966 172.963L179.655 170.741L181.684 171.852L175.782 175.185L164.899 169.074Z" fill="white"/>
<path d="M172.461 164.815L174.49 163.519L185.373 169.815L183.344 171.111L172.461 164.815Z" fill="white"/>
<path d="M176.704 162.222L178.918 160.926L186.849 162.593L190.169 163.519C188.878 162.963 187.218 162.037 185.927 161.296L182.053 159.074L184.082 157.963L194.965 164.259L192.751 165.556L184.82 163.889L181.684 162.963C182.975 163.519 184.636 164.259 185.927 165L189.8 167.222L187.771 168.333L176.704 162.222Z" fill="white"/>
<path d="M186.295 156.667L192.198 153.333L194.227 154.444L190.538 156.667L192.751 157.963L195.887 156.111L197.916 157.222L194.78 159.074L197.362 160.556L201.236 158.333L203.265 159.444L197.178 162.963L186.295 156.667Z" fill="white"/>
<path d="M227.059 71.8519C227.059 71.8519 231.855 66.6667 234.99 64.6296C238.126 62.7778 238.126 57.963 231.855 58.8889C226.137 59.6296 223.186 63.7037 223.186 63.7037L227.059 71.8519Z" fill="#FFC8B5"/>
<path d="M183.897 67.4075C183.897 67.4075 167.112 72.7778 158.997 78.3334C153.463 82.0371 146.085 86.4815 141.843 95.0001C137.047 104.444 135.571 116.852 135.571 139.63C135.571 143.519 141.289 146.852 148.298 146.852C154.385 146.852 159.55 144.444 160.657 141.111C160.841 140.741 160.841 140.185 160.841 139.815C160.841 139.445 160.841 139.074 160.657 138.704C160.657 135.926 160.841 131.296 160.841 126.852C160.841 119.259 166.375 113.889 170.248 112.593C174.122 111.296 180.393 110.185 189.984 107.963C197.916 106.111 204.556 103.148 209.905 98.889C213.779 95.926 223.923 91.8519 231.117 82.2223C236.282 75.3704 239.048 69.6297 241.815 66.6667C238.126 59.4445 225.583 70.7408 225.583 70.7408L199.207 71.1112L183.897 67.4075Z" fill="#FFC8B5"/>
<path d="M201.789 86.1111C201.789 86.1111 196.44 88.5185 192.751 93.3334C189.062 98.1482 187.586 102.222 187.586 102.222C187.586 102.222 201.42 95 209.905 92.4074C219.312 87.963 224.661 81.8519 228.904 73.8889C230.379 71.2963 201.789 86.1111 201.789 86.1111Z" fill="#FFA192"/>
<path d="M191.829 75.3704C191.829 75.3704 190.907 75.5556 189.062 75.926L179.471 68.8889L167.85 73.5185C167.85 73.5185 177.073 77.2222 167.481 81.1111C157.706 85 161.21 88.7037 160.472 91.2963C160.472 91.2963 163.424 88.1482 168.035 86.8519C173.015 85.5556 179.84 86.1111 185.189 86.1111C192.198 86.1111 195.887 79.0741 195.887 79.0741L191.829 75.3704Z" fill="#FFA192"/>
<path d="M152.541 107.037C156.599 109.63 160.657 110.741 160.657 110.741C160.657 110.741 157.89 108.889 151.803 104.444C145.716 100 144.241 100 144.241 100C144.241 100 148.483 104.444 152.541 107.037Z" fill="#FFA192"/>
<path d="M181.131 13.5186L156.599 27.7778V73.8889L166.375 63.7037L181.131 59.6297V13.5186Z" fill="#ED2929"/>
<path d="M192.936 95.3704L156.599 73.8889V27.7778L192.936 49.0741V95.3704Z" fill="#F74037"/>
<path d="M210.089 28.3333L173.753 7.22223L156.599 27.7778L192.936 49.0741L210.089 28.3333Z" fill="#FF5948"/>
<path d="M228.904 27.7778L210.09 28.3333L192.936 49.0741V95.3704L224.477 76.6667L228.904 73.8889V27.7778Z" fill="#ED2929"/>
<path d="M210.089 28.3334L173.752 7.22224L192.751 6.66669L228.903 27.7778L210.089 28.3334Z" fill="#F74037"/>
<path d="M167.666 113.704C167.666 113.704 161.579 114.63 158.812 122.593C156.045 130.556 156.783 144.815 156.783 144.815C156.783 144.815 161.025 143.333 161.025 139.444C161.025 137.037 161.025 126.296 161.948 122.778C162.686 118.333 167.666 113.704 167.666 113.704Z" fill="#FFA192"/>
<path d="M196.994 76.6667C191.46 82.0371 179.471 85.3704 170.986 86.6667C162.317 87.963 157.521 94.2593 160.657 101.296C163.792 108.519 186.849 106.667 190.538 101.296C194.227 95.926 200.498 87.963 205.294 82.5926C210.827 76.4815 214.516 68.8889 207.507 69.0741C202.343 69.0741 200.498 73.3334 196.994 76.6667Z" fill="#FFC8B5"/>
<path d="M182.606 72.5926C181.684 70.7408 180.393 68.5186 179.286 66.8519C180.208 65.7408 179.286 64.0741 177.995 62.7778C177.995 62.4074 177.995 62.0371 177.626 61.2963C178.733 60.926 179.471 59.8149 178.917 57.4074C178.364 48.3334 165.083 40.926 165.452 50.7408C165.452 52.2223 166.19 53.7037 167.112 54.8149C166.743 55.1852 166.743 55.7408 166.928 56.4815C166.19 56.2963 165.637 56.4815 165.637 57.0371C164.53 56.6667 163.423 56.6667 162.132 56.4815C161.948 56.4815 161.948 56.6667 161.948 57.0371C163.977 61.1111 166.559 66.1111 169.326 69.6297C169.51 69.8148 169.51 69.6297 169.51 69.4445C168.404 67.2223 167.112 65.3704 165.821 63.3334C164.715 61.4815 163.608 59.4445 162.686 57.4074C163.608 57.5926 164.715 57.5926 165.637 57.5926C165.637 57.963 165.821 58.3334 166.006 59.0741C166.19 59.2593 166.19 59.4445 166.375 59.6297C165.637 59.8149 165.452 60.7408 166.006 62.2223C166.928 65 170.433 67.4074 172.093 68.7037C174.122 70.1852 179.84 72.5926 178.179 67.2223C178.548 67.2223 178.733 67.2223 179.102 67.0371C179.84 68.7037 181.131 70.926 182.237 72.7778C182.422 73.1482 182.791 73.1482 182.606 72.5926ZM166.743 49.0741C167.85 46.2963 170.801 46.6667 173.384 48.7037C175.966 50.5556 177.626 53.3334 178.548 56.6667C179.655 62.963 174.859 60.3704 172.461 58.5186C169.695 56.6667 165.083 53.1482 166.743 49.0741ZM167.666 55.5556C169.51 57.7778 172.277 59.4445 173.937 60.3704C175.044 60.926 176.335 61.2963 177.257 61.2963C178.548 66.2963 166.559 58.5186 167.666 55.5556ZM176.335 69.6297C175.966 69.6297 175.228 69.4445 174.675 69.0741C172.646 68.1482 169.695 65.926 169.141 65.3704C168.588 64.8148 165.268 61.2963 166.928 60.1852C168.035 61.8519 169.141 62.0371 170.986 63.1482C171.724 63.5186 172.461 65 173.015 65.3704C174.306 66.2963 174.122 65.3704 175.413 65.7408C175.782 65.7408 177.257 66.8519 177.626 66.8519C178.179 69.4445 177.811 69.6297 176.335 69.6297ZM176.888 65.926C176.704 65.926 175.782 65.1852 175.597 65.1852C174.306 64.6297 173.384 65.5556 172.277 63.8889C171.724 63.1482 171.17 62.5926 170.617 62.2223C169.695 61.6667 168.772 61.2963 167.85 60.3704C166.559 59.0741 165.637 57.0371 167.481 57.4074C167.481 57.5926 167.666 57.7778 167.85 57.963C168.957 59.8148 171.17 61.1111 172.461 61.8519C173.199 62.4074 176.888 64.0741 177.995 63.5186C179.655 65.5556 178.179 66.6667 176.888 65.926Z" fill="white"/>
<path d="M170.617 49.0741C170.248 48.5186 169.51 48.7038 169.51 49.0741C169.51 49.2593 169.695 49.6297 169.879 49.6297C170.064 49.6297 170.248 49.4445 170.248 49.4445C170.433 49.2593 170.433 49.2593 170.617 49.0741Z" fill="white"/>
<path d="M172.646 50.3704C172.83 50.926 173.199 51.6667 173.384 52.2223C173.568 52.4075 173.753 52.4075 173.753 52.2223C173.753 51.4815 173.199 50.1852 172.646 50.3704Z" fill="white"/>
<path d="M171.908 53.3334C171.539 52.7778 171.171 52.5926 170.986 51.8519C170.802 51.4815 170.617 51.4815 170.617 51.8519C170.617 52.7778 171.171 54.0741 171.908 54.0741C172.093 54.0741 172.093 53.5185 171.908 53.3334Z" fill="white"/>
<path d="M175.966 54.4445C175.782 54.4445 175.782 54.6296 175.782 54.6296C175.597 54.8148 175.597 54.8148 175.413 55C175.228 55.1852 175.413 55.5556 175.782 55.7408C176.151 55.9259 176.519 55 175.966 54.4445Z" fill="white"/>
<path d="M168.957 52.7778C168.773 52.4074 168.404 52.2222 168.219 51.8519C168.035 51.4815 167.85 51.1111 167.482 50.7408C167.297 50.5556 167.113 50.5556 167.113 50.7408C166.928 51.8519 168.219 53.3334 168.773 53.1482C169.142 53.3334 169.142 52.963 168.957 52.7778Z" fill="white"/>
<path d="M174.306 56.4815C174.122 56.2964 173.937 56.4815 173.753 56.2964C173.568 56.2964 173.384 56.1112 173.015 56.2964C172.83 56.2964 172.83 56.8519 173.015 57.2223C173.568 57.5927 174.306 57.5927 174.49 57.0371C174.49 56.8519 174.49 56.4815 174.306 56.4815Z" fill="white"/>
<path d="M182.422 72.5926C179.655 72.2223 174.491 71.4815 171.355 71.2963V71.4815C174.675 72.5926 179.286 72.963 182.422 73.1482C182.607 72.963 182.607 72.5926 182.422 72.5926Z" fill="white"/>
<path d="M163.423 37.5926C164.161 37.5926 164.53 37.5926 165.268 37.5926C166.375 37.7778 167.481 38.3333 167.666 39.6296C167.85 40.1852 167.666 40.7407 167.297 40.9259C167.85 41.1111 168.404 41.8519 168.404 42.5926C168.588 43.8889 167.85 44.2593 166.928 44.2593C166.19 44.2593 166.006 44.2593 165.268 44.2593C164.53 41.6667 164.161 40.1852 163.423 37.5926ZM165.821 40.3704C166.375 40.3704 166.559 40.1852 166.559 39.6296C166.375 39.0741 166.006 38.8889 165.452 38.8889C165.268 38.8889 165.083 38.8889 164.899 38.8889C165.083 39.4444 165.083 39.8148 165.268 40.3704C165.452 40.1852 165.637 40.3704 165.821 40.3704ZM166.559 43.1481C167.112 43.1481 167.297 42.963 167.297 42.4074C167.112 41.8519 166.743 41.4815 166.19 41.4815C166.006 41.4815 165.821 41.4815 165.637 41.4815C165.821 42.2222 165.821 42.5926 166.006 43.1481C166.19 43.1481 166.375 43.1481 166.559 43.1481Z" fill="white"/>
<path d="M168.588 38.3333C170.064 38.8889 170.801 39.0741 172.277 40C172.277 40.5555 172.277 40.7407 172.277 41.1111C171.355 40.5555 170.986 40.3703 170.063 40C170.063 40.5555 170.064 40.7407 170.248 41.2963C170.986 41.6666 171.355 41.8518 172.092 42.2222C172.092 42.7778 172.092 42.9629 172.092 43.3333C171.355 42.9629 170.986 42.7778 170.248 42.5926C170.248 43.1481 170.248 43.5185 170.432 44.0741C171.17 44.4444 171.724 44.6296 172.461 45C172.461 45.5555 172.461 45.7407 172.461 46.1111C171.17 45.3703 170.617 45.1852 169.51 44.8148C169.141 42.2222 168.957 40.9259 168.588 38.3333Z" fill="white"/>
<path d="M173.199 45.7407C173.384 45.5555 173.568 45.3703 173.937 45.1852C174.306 45.7407 174.675 46.2963 175.044 46.6666C175.413 47.037 175.782 47.037 175.782 46.6666C175.782 46.2963 175.597 45.9259 175.044 45.3703C174.859 45 174.675 44.8148 174.306 44.6296C173.753 44.0741 173.199 43.1481 173.199 42.2222C173.199 41.2963 174.121 40.9259 175.413 41.8518C176.15 42.4074 176.704 43.1481 177.257 44.074C176.888 44.074 176.704 44.2592 176.519 44.2592C176.15 43.7037 175.782 43.1481 175.413 42.9629C175.044 42.5926 174.675 42.5926 174.675 42.9629C174.675 43.3333 175.044 43.7037 175.413 44.2592C175.597 44.6296 175.782 44.8148 176.15 45.1852C176.704 45.9259 177.073 46.8518 176.888 47.5926C176.704 48.5185 175.966 48.7037 174.859 47.7778C174.306 47.4074 173.568 46.6666 173.199 45.7407Z" fill="white"/>
<path d="M179.286 46.4815C178.733 45.926 178.364 45.5556 177.811 45C177.811 44.6297 177.995 44.4445 177.995 43.8889C179.84 45.5556 180.762 46.4815 182.422 48.5185C182.237 48.8889 182.237 49.0741 182.053 49.4445C181.5 48.7037 181.131 48.3334 180.577 47.7778C180.024 49.2593 179.84 50.1852 179.286 51.6667C178.917 51.2963 178.733 50.926 178.179 50.5556C178.548 48.8889 178.917 48.1482 179.286 46.4815Z" fill="white"/>
<path d="M163.977 65.7408C165.083 67.0371 165.637 67.7778 166.743 68.8889C166.559 69.2593 166.559 69.4445 166.559 69.8149C165.821 69.0741 165.452 68.7037 164.715 67.7778C164.53 68.1482 164.53 68.3334 164.346 68.8889C165.083 69.6297 165.452 70 166.006 70.7408C165.821 71.1112 165.821 71.2963 165.821 71.6667C165.083 70.926 164.715 70.5556 163.977 69.8149C163.792 70.5556 163.608 70.926 163.239 71.6667C162.686 71.1112 162.501 70.7408 161.948 70.1852C162.87 68.3334 163.239 67.5926 163.977 65.7408Z" fill="white"/>
<path d="M166.743 72.0371C167.112 70.3704 168.219 70.1852 169.51 71.1111C170.801 72.0371 171.539 73.7037 171.539 75.7408C171.539 77.7778 170.433 78.1482 168.772 77.0371C167.112 75.7408 166.375 73.7037 166.743 72.0371ZM170.248 75C170.433 73.8889 170.064 72.7778 169.326 72.4074C168.588 71.8519 168.219 72.2222 167.85 73.3333C167.666 74.4445 168.035 75.5556 168.772 76.1111C169.51 76.4815 170.064 76.1111 170.248 75Z" fill="white"/>
<path d="M172.277 76.2963C172.277 74.2593 173.199 73.7037 174.49 74.2593C175.781 74.8148 176.704 76.2963 177.073 78.3334C177.441 80.5556 176.519 81.4815 174.859 80.7408C173.199 80 172.277 78.1482 172.277 76.2963ZM175.781 77.963C175.597 76.6667 175.228 75.7408 174.49 75.3704C173.752 75 173.384 75.5556 173.384 76.8519C173.384 78.1482 173.937 79.0741 174.675 79.4445C175.597 79.8148 175.966 79.2593 175.781 77.963Z" fill="white"/>
<path d="M177.441 75.3704C177.995 75.5556 178.179 75.5556 178.733 75.5556C180.024 75.7408 181.315 76.6667 182.053 78.8889C182.79 81.1112 182.053 82.4075 180.393 82.2223C179.655 82.2223 179.47 82.0371 178.733 81.8519C177.995 79.2593 177.81 77.963 177.441 75.3704ZM179.839 80.926C180.762 81.1112 181.13 80.5556 180.762 78.8889C180.393 77.2223 179.655 76.8519 178.917 76.6667H178.733C179.101 78.3334 179.286 79.2593 179.655 80.926C179.655 80.926 179.655 80.926 179.839 80.926Z" fill="white"/>
<path d="M80.2363 165.185C78.9451 163.704 77.4695 162.593 75.625 161.852C74.1494 161.296 72.6738 160.926 71.1981 160.741C68.2469 160.37 65.2957 160.556 63.4512 161.296C54.9664 164.444 50.9085 167.778 44.8216 174.815C44.6372 175 44.4527 175.185 44.2683 175.556C42.4237 177.778 38.7347 182.037 37.9969 182.407C36.5213 183.148 30.9878 182.593 27.6677 184.63C26.0076 185.741 24.7164 188.519 24.532 190.556C24.532 190.926 24.532 191.296 24.7164 191.667C25.8231 195.556 30.25 197.037 32.2789 196.667C36.7058 196.111 38.9192 192.222 40.2103 191.852C43.346 190.556 45.5594 191.481 48.5106 192.593C59.5777 197.037 69.5381 197.037 74.5183 194.63C79.314 192.222 83.3719 187.407 84.1097 182.037C85.032 175.926 83.9253 169.63 80.2363 165.185Z" fill="#9B4D26"/>
<path d="M24.7166 190.185C24.7166 188.148 26.1922 185.37 27.8522 184.259C30.9879 182.222 36.7059 182.778 38.1815 182.037C38.9193 181.667 42.6083 177.407 44.4528 175.185C44.4528 175.926 44.6373 176.667 45.0062 177.222C47.2196 182.593 56.9955 184.259 61.7912 182.963C67.5092 181.296 72.305 176.481 73.5961 169.444C74.1495 166.296 73.4117 162.778 71.3827 160.556C72.8583 160.741 74.3339 161.111 75.8095 161.667C78.2074 165 78.7608 169.63 78.023 173.889C77.1007 179.259 74.3339 184.815 69.9071 187.963C64.0047 192.222 57.5489 189.63 51.462 187.778C46.4818 186.296 41.5016 185.741 37.0748 189.074C35.0458 190.556 33.2013 192.778 30.619 193.519C27.8522 194.259 25.4544 192.593 24.7166 190.185Z" fill="#873D1D"/>
<path d="M73.4116 169.444C72.1204 176.481 67.5092 181.296 61.6067 182.963C56.811 184.259 47.0351 182.593 44.8217 177.222C44.4528 176.481 44.4528 175.741 44.2683 175.185C44.4528 175 44.6372 174.63 44.8217 174.444C50.7241 167.407 54.782 164.074 63.4512 160.926C65.2958 160.185 68.0625 160 71.1982 160.37C73.2271 162.778 73.965 166.481 73.4116 169.444Z" fill="#9B4D26"/>
<path d="M84.2943 181.667C83.5565 187.037 79.4986 191.852 74.7028 194.259C69.7227 196.667 59.7623 196.667 48.6952 192.222C45.744 191.111 43.5306 190.185 40.3949 191.481C39.1037 192.037 37.0748 195.741 32.4635 196.296C30.619 196.481 26.0077 195.185 24.901 191.296C24.901 190.926 24.7166 190.556 24.7166 190.185C25.4544 192.593 27.8522 194.259 30.4345 193.519C33.0169 192.778 34.8614 190.741 36.8903 189.074C41.1327 185.926 46.2973 186.296 51.2775 187.778C57.5489 189.63 64.0047 192.222 69.7226 187.963C74.3339 184.63 76.9163 179.259 77.8385 173.889C78.5763 169.63 78.023 165 75.6251 161.667C77.4696 162.407 78.9452 163.519 80.2364 165C83.9254 169.63 85.0321 175.926 84.2943 181.667Z" fill="#752E15"/>
<path d="M48.3261 174.259C48.695 169.815 57.3642 165.556 59.9465 165.185C62.7133 164.815 67.3246 165.37 66.9557 169.815C66.5868 173.889 62.3444 176.481 57.3642 177.778C54.0441 178.704 47.9572 177.778 48.3261 174.259Z" fill="#AD5731"/>
<path d="M51.2775 175.741C50.1708 175.185 49.064 173.704 49.6174 172.593C51.6464 168.889 56.0732 167.407 57.9177 167.407C60.8689 167.407 62.1601 170.741 60.3156 172.963C58.6555 175.185 53.8598 177.222 51.2775 175.741Z" fill="#BF613C"/>
<path d="M46.6661 181.667C45.7439 180.556 48.1418 179.259 48.6951 179.259C49.2485 179.259 49.4329 179.63 49.6174 180.185C49.6174 180.741 49.4329 181.111 49.064 181.481C48.5107 182.037 47.404 182.593 46.6661 181.667Z" fill="#FFCF48"/>
<path d="M39.1036 188.889C38.1814 187.778 40.5793 186.481 41.1326 186.481C41.686 186.481 41.8704 186.852 42.0549 187.407C42.0549 187.963 41.8704 188.333 41.5015 188.704C40.9482 189.259 39.657 189.815 39.1036 188.889Z" fill="#FFCF48"/>
<path d="M49.2484 170C48.3262 168.889 50.724 167.593 51.2774 167.593C51.8307 167.593 52.0152 167.963 52.1996 168.519C52.1996 169.074 52.0152 169.444 51.6463 169.815C51.0929 170.37 49.9862 170.926 49.2484 170Z" fill="#FFCF48"/>
<path d="M65.4801 170.741C64.5579 169.63 66.9557 168.333 67.5091 168.333C68.0624 168.333 68.2469 168.704 68.4313 169.259C68.4313 169.815 68.2469 170.185 67.878 170.556C67.3246 170.926 66.2179 171.481 65.4801 170.741Z" fill="#FFCF48"/>
<path d="M76.5473 172.222C75.625 171.111 78.0229 169.815 78.5762 169.815C79.1296 169.815 79.314 170.185 79.4985 170.741C79.4985 171.296 79.314 171.667 78.9451 172.037C78.2073 172.593 77.1006 173.148 76.5473 172.222Z" fill="#FFCF48"/>
<path d="M62.16 186.852C61.2378 185.741 63.6357 184.444 64.189 184.444C64.7424 184.444 64.9268 184.815 65.1113 185.37C65.1113 185.926 64.9268 186.296 64.5579 186.667C63.8201 187.037 62.7134 187.778 62.16 186.852Z" fill="#FFCF48"/>
<path d="M52.7531 191.111C51.8308 190 54.2287 188.704 54.782 188.704C55.3354 188.704 55.5198 189.074 55.7043 189.63C55.7043 190.185 55.5198 190.556 55.1509 190.926C54.5976 191.481 53.4909 192.037 52.7531 191.111Z" fill="#FFCF48"/>
<path d="M54.2287 180.741C53.122 181.852 55.3354 183.333 55.8888 183.519C56.4421 183.519 56.811 183.333 56.811 182.778C56.9955 182.407 56.811 181.852 56.4421 181.481C56.0732 180.741 55.151 180 54.2287 180.741Z" fill="#FFCF48"/>
<path d="M75.6249 186.667C74.5182 187.778 76.7317 189.259 77.285 189.444C77.8384 189.444 78.2073 189.259 78.2073 188.704C78.3917 188.333 78.2073 187.778 77.8384 187.407C77.4695 186.667 76.3627 185.926 75.6249 186.667Z" fill="#FFCF48"/>
<path d="M41.5017 177.037C40.3949 178.148 42.6084 179.63 43.1617 179.815C43.7151 179.815 44.084 179.63 44.084 179.074C44.2684 178.704 44.084 178.148 43.7151 177.778C43.3462 177.037 42.4239 176.296 41.5017 177.037Z" fill="#FFCF48"/>
<path d="M32.6479 190.185C31.5412 191.296 33.7546 192.778 34.308 192.963C34.8613 192.963 35.2302 192.778 35.2302 192.222C35.4147 191.852 35.2302 191.296 34.8613 190.926C34.4924 190.185 33.3857 189.444 32.6479 190.185Z" fill="#FFCF48"/>
<path d="M64.3734 178.148C65.4801 177.222 63.4512 175.37 62.7134 175.37C62.16 175.37 61.7911 175.556 61.7911 176.111C61.6067 176.481 61.7911 177.037 62.16 177.407C62.5289 178.148 63.4512 178.889 64.3734 178.148Z" fill="#FFCF48"/>
<path d="M72.1205 162.778C73.2272 161.852 71.1982 160 70.4604 160C69.9071 160 69.5382 160.185 69.5382 160.741C69.3537 161.111 69.5382 161.667 69.9071 162.037C70.276 162.778 71.3827 163.519 72.1205 162.778Z" fill="#FFCF48"/>
<path d="M61.4223 163.148C60.3156 164.259 62.529 165.741 63.0824 165.926C63.6357 165.926 64.0046 165.741 64.0046 165.185C64.1891 164.815 64.0046 164.259 63.6357 163.889C63.2668 163.333 62.1601 162.407 61.4223 163.148Z" fill="#FFCF48"/>
<path d="M78.5761 177.963C77.4694 179.074 79.6828 180.556 80.2362 180.741C80.7895 180.741 81.1584 180.556 81.1584 180C81.3429 179.63 81.1584 179.074 80.7895 178.704C80.4206 177.963 79.4984 177.222 78.5761 177.963Z" fill="#FFCF48"/>
<path d="M67.878 180.926C68.2469 182.407 70.6448 181.296 71.0137 180.741C71.1981 180.37 71.1981 179.815 70.8292 179.63C70.4603 179.259 69.907 179.259 69.5381 179.259C68.6158 179.259 67.5091 179.815 67.878 180.926Z" fill="#FFCF48"/>
<path d="M64.927 192.593C65.2959 194.074 67.6937 192.963 68.0627 192.407C68.2471 192.037 68.2471 191.481 67.8782 191.296C67.5093 190.926 66.9559 190.926 66.587 190.926C65.8492 191.111 64.5581 191.667 64.927 192.593Z" fill="#FFCF48"/>
<path d="M46.6662 187.778C47.0351 189.259 49.433 188.148 49.8019 187.593C49.9864 187.222 49.9864 186.667 49.6175 186.481C49.2486 186.111 48.6952 186.111 48.3263 186.111C47.5885 186.111 46.2973 186.667 46.6662 187.778Z" fill="#FFCF48"/>
<path d="M32.8323 185.556C33.2012 187.037 35.5991 185.926 35.968 185.37C36.1525 185 36.1525 184.444 35.7836 184.259C35.4147 183.889 34.8613 183.889 34.4924 183.889C33.5701 183.889 32.4634 184.444 32.8323 185.556Z" fill="#FFCF48"/>
<path d="M80.605 178.704C81.8962 177.222 83.3718 176.111 85.2163 175.37C86.6919 174.815 88.1675 174.444 89.6431 174.259C92.5944 173.889 95.5456 174.074 97.3901 174.815C105.875 177.963 109.933 181.296 116.02 188.333C116.204 188.519 116.389 188.704 116.573 189.074C118.418 191.296 122.107 195.556 122.844 195.926C124.32 196.667 129.854 196.111 133.174 198.148C134.834 199.259 136.125 202.037 136.309 204.074C136.309 204.444 136.309 204.815 136.125 205.185C135.018 209.074 130.591 210.556 128.562 210.185C124.136 209.63 121.922 205.741 120.631 205.37C117.495 204.074 115.282 205 112.331 206.111C101.264 210.556 91.3032 210.556 86.323 208.148C81.5273 205.741 77.4694 200.926 76.7316 195.556C75.9937 189.63 76.916 183.333 80.605 178.704Z" fill="#9B4D26"/>
<path d="M136.125 203.889C136.125 201.852 134.649 199.074 132.989 197.963C129.854 195.926 124.136 196.481 122.66 195.741C121.922 195.37 118.233 191.111 116.389 188.889C116.389 189.63 116.204 190.37 115.835 190.926C113.622 196.296 103.846 197.963 99.0502 196.667C93.3322 195 88.5365 190.185 87.2453 183.148C86.692 180 87.4298 176.481 89.4588 174.259C87.9831 174.444 86.5075 174.815 85.0319 175.37C82.6341 178.704 82.0807 183.333 82.8185 187.593C83.7408 192.963 86.5075 198.519 90.9344 201.667C96.8368 205.926 103.293 203.333 109.379 201.482C114.36 200 119.34 199.444 123.767 202.778C125.796 204.259 127.64 206.482 130.222 207.222C132.989 207.963 135.387 206.296 136.125 203.889Z" fill="#873D1D"/>
<path d="M87.4298 183.148C88.721 190.185 93.3323 195 99.2347 196.667C104.03 197.963 113.806 196.296 116.02 190.926C116.389 190.185 116.389 189.444 116.573 188.889C116.389 188.704 116.204 188.333 116.02 188.148C110.117 181.111 106.059 177.778 97.3902 174.63C95.5457 173.889 92.7789 173.704 89.6432 174.074C87.6143 176.482 86.8765 180 87.4298 183.148Z" fill="#9B4D26"/>
<path d="M76.7314 195.185C77.4692 200.556 81.5271 205.37 86.3228 207.778C91.303 210.185 101.263 210.185 112.33 205.741C115.282 204.63 117.495 203.704 120.631 205C121.922 205.556 123.951 209.259 128.562 209.815C130.407 210 135.018 208.704 136.125 204.815C136.125 204.444 136.309 204.074 136.309 203.704C135.571 206.111 133.173 207.778 130.591 207.037C128.009 206.296 126.164 204.259 124.135 202.593C119.893 199.444 114.728 199.815 109.748 201.296C103.477 203.148 97.021 205.741 91.303 201.481C86.6918 198.148 84.1094 192.778 83.1872 187.407C82.4494 183.148 83.0027 178.519 85.4006 175.185C83.5561 175.926 82.0805 177.037 80.7893 178.519C76.9158 183.333 75.9936 189.63 76.7314 195.185Z" fill="#752E15"/>
<path d="M112.7 187.778C112.331 183.333 103.662 179.074 101.079 178.704C98.3125 178.333 93.7013 178.889 94.0702 183.333C94.4391 187.407 98.6815 190 103.662 191.296C106.797 192.407 112.884 191.296 112.7 187.778Z" fill="#AD5731"/>
<path d="M109.748 189.259C110.855 188.704 111.962 187.222 111.409 186.111C109.38 182.407 104.953 180.926 103.108 180.926C100.157 180.926 98.8658 184.259 100.71 186.482C102.37 188.704 106.982 190.741 109.748 189.259Z" fill="#BF613C"/>
<path d="M114.175 195.37C115.097 194.259 112.699 192.963 112.146 192.963C111.593 192.963 111.408 193.333 111.224 193.889C111.224 194.444 111.408 194.815 111.777 195.185C112.33 195.556 113.437 196.296 114.175 195.37Z" fill="#FFCF48"/>
<path d="M121.737 202.593C122.66 201.481 120.262 200.185 119.708 200.185C119.155 200.185 118.971 200.556 118.786 201.111C118.786 201.667 118.971 202.037 119.339 202.407C120.077 202.778 121.184 203.519 121.737 202.593Z" fill="#FFCF48"/>
<path d="M111.593 183.704C112.515 182.593 110.117 181.296 109.564 181.296C109.011 181.296 108.826 181.667 108.642 182.222C108.642 182.778 108.826 183.148 109.195 183.519C109.748 183.889 111.039 184.63 111.593 183.704Z" fill="#FFCF48"/>
<path d="M95.3609 184.259C96.2831 183.148 93.8853 181.852 93.3319 181.852C92.7786 181.852 92.5941 182.222 92.4097 182.778C92.4097 183.333 92.5941 183.704 92.963 184.074C93.5164 184.63 94.8075 185.185 95.3609 184.259Z" fill="#FFCF48"/>
<path d="M84.4786 185.926C85.4008 184.815 83.003 183.519 82.4496 183.519C81.8962 183.519 81.7118 183.889 81.5273 184.444C81.5273 185 81.7118 185.37 82.0807 185.741C82.634 186.111 83.7408 186.852 84.4786 185.926Z" fill="#FFCF48"/>
<path d="M98.8658 200.556C99.788 199.444 97.3902 198.148 96.8368 198.148C96.2835 198.148 96.099 198.519 95.9146 199.074C95.9146 199.63 96.099 200 96.4679 200.37C97.0213 200.741 98.128 201.296 98.8658 200.556Z" fill="#FFCF48"/>
<path d="M108.088 204.815C109.011 203.704 106.613 202.407 106.059 202.407C105.506 202.407 105.322 202.778 105.137 203.333C105.137 203.889 105.322 204.259 105.691 204.63C106.244 205 107.535 205.741 108.088 204.815Z" fill="#FFCF48"/>
<path d="M106.613 194.444C107.719 195.556 105.506 197.037 104.953 197.222C104.399 197.222 104.03 197.037 104.03 196.482C103.846 196.111 104.03 195.556 104.399 195.185C104.768 194.444 105.875 193.519 106.613 194.444Z" fill="#FFCF48"/>
<path d="M85.4008 200.37C86.5075 201.482 84.2941 202.963 83.7407 203.148C83.1874 203.148 82.8185 202.963 82.8185 202.407C82.634 202.037 82.8185 201.482 83.1874 201.111C83.5563 200.37 84.4785 199.444 85.4008 200.37Z" fill="#FFCF48"/>
<path d="M119.34 190.556C120.446 191.667 118.233 193.148 117.68 193.333C117.126 193.333 116.757 193.148 116.757 192.593C116.573 192.222 116.757 191.667 117.126 191.296C117.495 190.741 118.417 189.815 119.34 190.556Z" fill="#FFCF48"/>
<path d="M128.193 203.889C129.3 205 127.087 206.482 126.533 206.667C125.98 206.667 125.611 206.482 125.611 205.926C125.426 205.556 125.611 205 125.98 204.63C126.349 203.889 127.455 203.148 128.193 203.889Z" fill="#FFCF48"/>
<path d="M96.6521 191.852C95.5454 190.926 97.5743 189.074 98.3121 189.074C98.8655 189.074 99.2344 189.259 99.2344 189.815C99.4188 190.185 99.2344 190.741 98.8655 191.111C98.4966 191.667 97.3899 192.593 96.6521 191.852Z" fill="#FFCF48"/>
<path d="M88.7209 176.482C87.6142 175.556 89.6432 173.704 90.381 173.704C90.9343 173.704 91.3032 173.889 91.3032 174.444C91.4877 174.815 91.3032 175.37 90.9343 175.741C90.5654 176.482 89.4587 177.222 88.7209 176.482Z" fill="#FFCF48"/>
<path d="M99.4188 176.852C100.526 177.963 98.3121 179.444 97.7588 179.63C97.2054 179.63 96.8365 179.444 96.8365 178.889C96.6521 178.519 96.8365 177.963 97.2054 177.593C97.7588 176.852 98.681 176.111 99.4188 176.852Z" fill="#FFCF48"/>
<path d="M82.265 191.481C83.3717 192.593 81.1583 194.074 80.605 194.259C80.0516 194.259 79.6827 194.074 79.6827 193.519C79.4983 193.148 79.6827 192.593 80.0516 192.222C80.4205 191.667 81.5272 190.741 82.265 191.481Z" fill="#FFCF48"/>
<path d="M93.1475 194.63C92.7786 196.111 90.3807 195 90.0118 194.444C89.8273 194.074 89.8273 193.519 90.1962 193.333C90.5651 192.963 91.1185 192.963 91.4874 192.963C92.2252 192.963 93.3319 193.519 93.1475 194.63Z" fill="#FFCF48"/>
<path d="M95.9145 206.296C95.5456 207.778 93.1478 206.667 92.7789 206.111C92.5944 205.741 92.5944 205.185 92.9633 205C93.3322 204.63 93.8856 204.63 94.2545 204.63C94.9923 204.63 96.2834 205.185 95.9145 206.296Z" fill="#FFCF48"/>
<path d="M114.175 201.296C113.806 202.778 111.409 201.667 111.04 201.111C110.855 200.741 110.855 200.185 111.224 200C111.593 199.63 112.146 199.63 112.515 199.63C113.437 199.815 114.544 200.37 114.175 201.296Z" fill="#FFCF48"/>
<path d="M128.193 199.074C127.824 200.556 125.427 199.444 125.058 198.889C124.873 198.519 124.873 197.963 125.242 197.778C125.611 197.407 126.164 197.407 126.533 197.407C127.271 197.407 128.378 197.963 128.193 199.074Z" fill="#FFCF48"/>
</g>
<defs>
<clipPath id="clip0_204_4266">
<rect width="242" height="225" fill="white"/>
</clipPath>
</defs>
</svg>
